<?xml version="1.0" ?><!DOCTYPE svg  PUBLIC '-//W3C//DTD SVG 1.1//EN'  'http://www.w3.org/Graphics/SVG/1.1/DTD/svg11.dtd'><svg enable-background="new 0 0 128 128" height="128px" version="1.1" viewBox="0 0 128 128" width="128px" xml:space="preserve" xmlns="http://www.w3.org/2000/svg" xmlns:xlink="http://www.w3.org/1999/xlink"><g id="Layer_1"><g><circle cx="64" cy="64" fill="#3AC0C3" r="64"/><g><defs><circle cx="64" cy="64" id="SVGID_91_" r="64"/></defs><clipPath id="SVGID_2_"><use overflow="visible" xlink:href="#SVGID_91_"/></clipPath><polygon clip-path="url(#SVGID_2_)" fill="#00A9B0" points="51,54.85 63.575,67.425 63.575,70 41.625,70 36.875,72.375 36,78      35.375,82 25.664,97.479 56.185,128 128,128 128,78 77.854,28    "/></g><path d="M86,68H66V54h-4v14H42c-4.411,0-8,3.589-8,8v13h4V76c0-2.206,1.794-4,4-4h20v17h4V72h20    c2.206,0,4,1.794,4,4v13h4V76C94,71.589,90.411,68,86,68z" fill="#FFFFFF"/><path d="M45,98H27c-1.105,0-2-0.895-2-2V82c0-1.105,0.895-2,2-2h18c1.105,0,2,0.895,2,2v14    C47,97.105,46.105,98,45,98z" fill="#364558"/><path d="M73,98H55c-1.105,0-2-0.895-2-2V82c0-1.105,0.895-2,2-2h18c1.105,0,2,0.895,2,2v14    C75,97.105,74.105,98,73,98z" fill="#364558"/><path d="M101,98H83c-1.105,0-2-0.895-2-2V82c0-1.105,0.895-2,2-2h18c1.105,0,2,0.895,2,2v14    C103,97.105,102.105,98,101,98z" fill="#364558"/><circle cx="64" cy="41" fill="#364558" r="19"/><circle cx="64" cy="41" fill="#F3C616" r="13"/><g><defs><circle cx="64" cy="41" id="SVGID_93_" r="13"/></defs><clipPath id="SVGID_4_"><use overflow="visible" xlink:href="#SVGID_93_"/></clipPath><polygon clip-path="url(#SVGID_4_)" fill="#E19D26" points="56.032,39.723 60.952,44.642 58.984,48.323 65.424,54.763      73.375,52.344 77.406,45.562 77.659,44.086 71.829,38.296 70.312,38.688 64.785,33.198 62.75,39.625    "/></g><path d="M65.003,33.58l1.201,3.697c0.146,0.449,0.564,0.752,1.035,0.752h3.887c1.022,0,1.447,1.308,0.62,1.909    l-3.145,2.285c-0.382,0.277-0.541,0.769-0.395,1.217l1.201,3.697c0.316,0.972-0.797,1.78-1.624,1.18l-3.145-2.285    c-0.382-0.277-0.898-0.277-1.28,0l-3.145,2.285c-0.827,0.601-1.94-0.208-1.624-1.18l1.201-3.697    c0.146-0.449-0.014-0.94-0.395-1.217l-3.145-2.285c-0.827-0.601-0.402-1.909,0.62-1.909h3.887c0.472,0,0.89-0.304,1.035-0.752    l1.201-3.697C63.312,32.608,64.688,32.608,65.003,33.58z" fill="#FFFFFF"/><g><defs><path d="M45,98H27c-1.105,0-2-0.895-2-2V82c0-1.105,0.895-2,2-2h18c1.105,0,2,0.895,2,2v14      C47,97.105,46.105,98,45,98z" id="SVGID_95_"/></defs><clipPath id="SVGID_6_"><use overflow="visible" xlink:href="#SVGID_95_"/></clipPath><polygon clip-path="url(#SVGID_6_)" fill="#2B3849" points="29.238,85.64 32.346,88.748 29.344,89.749 32.346,92.751      29.331,93.739 34.14,98.548 47.281,98.548 47.281,88.859 42.731,84.319    "/></g><g><defs><path d="M73,98H55c-1.105,0-2-0.895-2-2V82c0-1.105,0.895-2,2-2h18c1.105,0,2,0.895,2,2v14      C75,97.105,74.105,98,73,98z" id="SVGID_97_"/></defs><clipPath id="SVGID_8_"><use overflow="visible" xlink:href="#SVGID_97_"/></clipPath><polygon clip-path="url(#SVGID_8_)" fill="#2B3849" points="57.238,85.64 60.346,88.748 57.344,89.749 60.346,92.751      57.331,93.739 62.14,98.548 75.281,98.548 75.281,88.859 70.731,84.319    "/></g><g><defs><path d="M101,98H83c-1.105,0-2-0.895-2-2V82c0-1.105,0.895-2,2-2h18c1.105,0,2,0.895,2,2v14      C103,97.105,102.105,98,101,98z" id="SVGID_99_"/></defs><clipPath id="SVGID_10_"><use overflow="visible" xlink:href="#SVGID_99_"/></clipPath><polygon clip-path="url(#SVGID_10_)" fill="#2B3849" points="85.238,85.64 88.346,88.748 85.344,89.749 88.346,92.751      85.331,93.739 90.14,98.548 103.281,98.548 103.281,88.859 98.731,84.319    "/></g><path d="M42,86H30c-0.552,0-1-0.448-1-1l0,0c0-0.552,0.448-1,1-1h12c0.552,0,1,0.448,1,1l0,0    C43,85.552,42.552,86,42,86z" fill="#A3DCE8"/><path d="M42,90H30c-0.552,0-1-0.448-1-1l0,0c0-0.552,0.448-1,1-1h12c0.552,0,1,0.448,1,1l0,0    C43,89.552,42.552,90,42,90z" fill="#A3DCE8"/><path d="M42,94H30c-0.552,0-1-0.448-1-1l0,0c0-0.552,0.448-1,1-1h12c0.552,0,1,0.448,1,1l0,0    C43,93.552,42.552,94,42,94z" fill="#A3DCE8"/><path d="M70,86H58c-0.552,0-1-0.448-1-1l0,0c0-0.552,0.448-1,1-1h12c0.552,0,1,0.448,1,1l0,0    C71,85.552,70.552,86,70,86z" fill="#A3DCE8"/><path d="M70,90H58c-0.552,0-1-0.448-1-1l0,0c0-0.552,0.448-1,1-1h12c0.552,0,1,0.448,1,1l0,0    C71,89.552,70.552,90,70,90z" fill="#A3DCE8"/><path d="M70,94H58c-0.552,0-1-0.448-1-1l0,0c0-0.552,0.448-1,1-1h12c0.552,0,1,0.448,1,1l0,0    C71,93.552,70.552,94,70,94z" fill="#A3DCE8"/><path d="M98,86H86c-0.552,0-1-0.448-1-1l0,0c0-0.552,0.448-1,1-1h12c0.552,0,1,0.448,1,1l0,0    C99,85.552,98.552,86,98,86z" fill="#A3DCE8"/><path d="M98,90H86c-0.552,0-1-0.448-1-1l0,0c0-0.552,0.448-1,1-1h12c0.552,0,1,0.448,1,1l0,0    C99,89.552,98.552,90,98,90z" fill="#A3DCE8"/><path d="M98,94H86c-0.552,0-1-0.448-1-1l0,0c0-0.552,0.448-1,1-1h12c0.552,0,1,0.448,1,1l0,0    C99,93.552,98.552,94,98,94z" fill="#A3DCE8"/></g></g><g id="Layer_2"/></svg>